Coordinates
version=1
nRows=13
nColumns=38
inDegrees=no

Units are S.I. units (second, meters, Newtons, ...)
If the header above contains a line with 'inDegrees', this indicates whether rotational values are in degrees (yes) or radians (no).

endheader
time	pelvis_tilt	pelvis_list	pelvis_rotation	pelvis_tx	pelvis_ty	pelvis_tz	hip_flexion_r	hip_adduction_r	hip_rotation_r	knee_angle_r	ankle_angle_r	subtalar_angle_r	mtp_angle_r	hip_flexion_l	hip_adduction_l	hip_rotation_l	knee_angle_l	ankle_angle_l	subtalar_angle_l	mtp_angle_l	lumbar_extension	lumbar_bending	lumbar_rotation	arm_flex_r	arm_add_r	arm_rot_r	elbow_flex_r	pro_sup_r	wrist_flex_r	wrist_dev_r	arm_flex_l	arm_add_l	arm_rot_l	elbow_flex_l	pro_sup_l	wrist_flex_l	wrist_dev_l
1.27	2.93387	1.27931	-1.28103	0.616962	0.713342	0.961229	-0.290454	0.0947153	-0.248957	0.289035	-0.212249	0	0	0.0465023	-0.26351	-0.234267	1.27093	-0.152547	0	0	-0.40582	0.0926289	-0.135385	-0.227223	-0.226215	-0.136844	0.819235	0.460352	0	0	-0.138095	-0.297459	0.0953528	0.868112	1.48249	0	0
1.28	2.95492	1.26984	-1.30729	0.617202	0.723203	0.962009	-0.320134	0.0917853	-0.247142	0.276025	-0.212454	0	0	0.0501041	-0.267814	-0.261701	1.2469	-0.151541	0	0	-0.417956	0.0867926	-0.130444	-0.229246	-0.226461	-0.138594	0.824571	0.459882	0	0	-0.146171	-0.301466	0.0968827	0.871589	1.47842	0	0
1.29	2.97418	1.26088	-1.33165	0.617364	0.733093	0.962577	-0.34907	0.0886227	-0.244255	0.262962	-0.212766	0	0	0.0521566	-0.271287	-0.290314	1.21774	-0.151739	0	0	-0.4294	0.0808615	-0.125504	-0.231399	-0.227154	-0.139012	0.829913	0.460458	0	0	-0.154529	-0.305446	0.0985317	0.874922	1.4795	0	0
1.3	2.99046	1.25378	-1.35339	0.617477	0.743075	0.962867	-0.375049	0.0851925	-0.241456	0.251556	-0.212449	0	0	0.0539294	-0.273425	-0.319446	1.18325	-0.152416	0	0	-0.438282	0.074944	-0.120564	-0.232861	-0.22738	-0.139799	0.833829	0.45999	0	0	-0.162401	-0.308061	0.0983172	0.876403	1.48037	0	0
1.31	3.00515	1.24572	-1.37364	0.617486	0.752793	0.963057	-0.400791	0.0815521	-0.237466	0.241338	-0.212018	0	0	0.052869	-0.274048	-0.347953	1.14304	-0.155213	0	0	-0.448724	0.0696312	-0.115549	-0.233571	-0.227763	-0.140795	0.838771	0.458805	0	0	-0.169397	-0.310161	0.0971657	0.877979	1.47948	0	0
1.32	3.01738	1.23814	-1.39144	0.61738	0.762274	0.963044	-0.4243	0.0773355	-0.233168	0.234171	-0.210908	0	0	0.0510068	-0.273019	-0.374495	1.09778	-0.160278	0	0	-0.459122	0.0649362	-0.110436	-0.233498	-0.228356	-0.141876	0.844182	0.457213	0	0	-0.175207	-0.311837	0.0956034	0.87897	1.47801	0	0
1.33	3.02795	1.232	-1.40602	0.617118	0.771835	0.962792	-0.44578	0.0734791	-0.23146	0.228739	-0.208604	0	0	0.0496434	-0.27057	-0.398582	1.04812	-0.168202	0	0	-0.467737	0.0608474	-0.106728	-0.232989	-0.228523	-0.143178	0.848739	0.455295	0	0	-0.180803	-0.313162	0.0935392	0.879056	1.47564	0	0
1.34	3.0367	1.22736	-1.4173	0.616709	0.781477	0.962325	-0.465679	0.0703113	-0.230242	0.222701	-0.206417	0	0	0.0491878	-0.267104	-0.421265	0.995164	-0.179183	0	0	-0.474602	0.0575117	-0.104354	-0.232278	-0.2284	-0.143909	0.8526	0.453705	0	0	-0.18637	-0.314094	0.0910635	0.878391	1.47252	0	0
1.35	3.04381	1.22438	-1.42611	0.616195	0.791121	0.961609	-0.483263	0.0676207	-0.229264	0.217504	-0.204078	0	0	0.0499106	-0.262122	-0.442961	0.939908	-0.190637	0	0	-0.479633	0.0546401	-0.103075	-0.230507	-0.227971	-0.144331	0.855184	0.451984	0	0	-0.19183	-0.314731	0.088098	0.876547	1.4691	0	0
1.36	3.05031	1.22253	-1.4335	0.615508	0.800683	0.960704	-0.499466	0.0651688	-0.228337	0.212189	-0.201775	0	0	0.0509929	-0.255035	-0.463489	0.882767	-0.202888	0	0	-0.483717	0.0520873	-0.102685	-0.227767	-0.227231	-0.144461	0.856869	0.449246	0	0	-0.196645	-0.314896	0.084451	0.873734	1.46537	0	0
1.37	3.05652	1.22248	-1.43974	0.614661	0.810232	0.959558	-0.513357	0.0625727	-0.228784	0.20825	-0.198574	0	0	0.0530043	-0.245594	-0.481201	0.824587	-0.212142	0	0	-0.486029	0.0497518	-0.103026	-0.224653	-0.226259	-0.144669	0.85793	0.445593	0	0	-0.200719	-0.314261	0.0799484	0.869825	1.46122	0	0
1.38	3.06149	1.22498	-1.4435	0.613656	0.819787	0.958098	-0.523599	0.0604604	-0.230886	0.20661	-0.193644	0	0	0.057207	-0.234413	-0.494961	0.765799	-0.217172	0	0	-0.485663	0.0480343	-0.104337	-0.221458	-0.225219	-0.144734	0.858417	0.441341	0	0	-0.204292	-0.313183	0.0753455	0.864506	1.4574	0	0
1.39	3.06355	1.23224	-1.44296	0.612519	0.829381	0.956202	-0.523599	0.059198	-0.233269	0.207478	-0.18717	0	0	0.0667019	-0.221544	-0.501488	0.705716	-0.219197	0	0	-0.479906	0.0470152	-0.107002	-0.217126	-0.22438	-0.143129	0.855706	0.436207	0	0	-0.207322	-0.311519	0.0700628	0.856839	1.45549	0	0
